<svg width="45" height="45" viewBox="0 0 45 45" fill="none" xmlns="http://www.w3.org/2000/svg">
<path fill-rule="evenodd" clip-rule="evenodd" d="M15.7837 6.09375C16.3087 4.9875 17.4412 4.21875 18.75 4.21875H26.25C27.5587 4.21875 28.6893 4.9875 29.2162 6.09375C30.4968 6.105 31.4962 6.16313 32.3887 6.51188C33.4541 6.92863 34.3807 7.6369 35.0625 8.55563C35.7506 9.48188 36.075 10.6687 36.5175 12.3019L37.9087 17.4056L38.4337 18.9825L38.4787 19.0388C40.1681 21.2025 39.3637 24.42 37.755 30.8531C36.7312 34.9463 36.2212 36.9919 34.695 38.1844C33.1687 39.375 31.0593 39.375 26.8406 39.375H18.1593C13.9406 39.375 11.8312 39.375 10.305 38.1844C8.77872 36.9919 8.26684 34.9463 7.24497 30.8531C5.63622 24.42 4.83184 21.2025 6.52122 19.0388L6.56622 18.9825L7.09122 17.4056L8.48247 12.3019C8.92684 10.6687 9.25122 9.48 9.93747 8.55375C10.6195 7.63571 11.546 6.92812 12.6112 6.51188C13.5037 6.16313 14.5012 6.10312 15.7837 6.09375ZM15.7875 8.91187C14.5462 8.925 14.0475 8.97187 13.635 9.13312C13.0612 9.35753 12.5621 9.73895 12.195 10.2338C11.865 10.6781 11.67 11.2987 11.1262 13.2994L10.0575 17.2163C11.97 16.875 14.5837 16.875 18.1575 16.875H26.8406C30.4162 16.875 33.0281 16.875 34.9406 17.2125L33.8737 13.2956C33.33 11.295 33.135 10.6744 32.805 10.23C32.4378 9.7352 31.9388 9.35378 31.365 9.12937C30.9525 8.96812 30.4537 8.92125 29.2125 8.90812C28.9462 9.46846 28.5266 9.94185 28.0023 10.2734C27.4779 10.6049 26.8703 10.781 26.25 10.7812H18.75C18.1298 10.7812 17.5224 10.6054 16.998 10.2742C16.4737 9.94299 16.054 9.47186 15.7875 8.91187Z" fill="white"/>
</svg>
